<svg version="1.1" id="Layer_1" xmlns="http://www.w3.org/2000/svg" xmlns:xlink="http://www.w3.org/1999/xlink" x="0px" y="0px"
	 width="100%" viewBox="0 0 832 516" enable-background="new 0 0 832 516" xml:space="preserve">
<path fill="#1D1D1D" opacity="1.000000" stroke="none" 
	d="
M531.000000,517.000000 
	C354.000000,517.000000 177.500000,517.000000 1.000000,517.000000 
	C1.000000,345.000000 1.000000,173.000000 1.000000,1.000000 
	C278.333344,1.000000 555.666687,1.000000 833.000000,1.000000 
	C833.000000,173.000000 833.000000,345.000000 833.000000,517.000000 
	C732.500000,517.000000 632.000000,517.000000 531.000000,517.000000 
M485.423798,49.305241 
	C502.738831,50.555733 510.179291,58.567837 509.861633,75.929047 
	C509.795135,79.562759 509.525665,83.350807 508.436584,86.777496 
	C505.429352,96.239540 502.003326,105.571411 498.612244,114.907310 
	C496.921997,119.560738 498.051086,123.768875 501.829224,125.703529 
	C505.727722,127.699814 510.516541,126.492279 512.546875,122.355606 
	C520.376038,106.403976 526.359863,89.873421 525.752502,71.747658 
	C524.999939,49.287621 510.036530,34.623627 487.714264,33.743629 
	C472.177460,33.131134 457.740936,37.289043 443.828827,43.506905 
	C408.195770,59.432686 379.232086,84.095093 353.658783,113.096138 
	C348.251099,119.228607 347.752899,123.831093 351.923157,127.332039 
	C356.077789,130.819870 360.391754,129.527100 365.747559,123.414993 
	C384.853241,101.611549 406.275513,82.500458 431.376587,67.796219 
	C447.827301,58.159389 464.882294,50.058075 485.423798,49.305241 
M440.259613,242.182297 
	C452.985748,248.125717 466.160645,252.549973 480.262177,253.643402 
	C503.079437,255.412598 522.821655,244.345032 525.435974,218.579849 
	C526.938171,203.774933 523.108704,189.854721 517.640686,176.355759 
	C505.907104,147.388763 487.444214,122.918488 465.936951,100.630508 
	C458.785065,93.219025 451.021790,86.378326 443.306610,79.537704 
	C439.478180,76.143280 434.780731,76.753555 431.832855,80.367241 
	C428.984741,83.858604 429.388580,87.871429 433.008087,91.445244 
	C434.071899,92.495605 435.260925,93.418480 436.383301,94.410240 
	C461.664307,116.748985 483.359283,141.971741 498.447144,172.391296 
	C505.129517,185.863968 510.417755,199.824539 509.920624,215.251740 
	C509.565308,226.277771 503.682739,235.080750 493.922699,236.610184 
	C486.705414,237.741135 478.871521,237.673920 471.765228,236.098114 
	C462.461121,234.034973 453.691406,229.662918 444.499420,226.931396 
	C441.741791,226.111938 437.507080,226.440002 435.483673,228.106110 
	C433.657898,229.609512 432.910858,233.928650 433.588867,236.505997 
	C434.164520,238.694336 437.452698,240.169128 440.259613,242.182297 
M330.277374,143.237686 
	C345.414398,166.600784 363.854675,187.064819 384.780396,205.348679 
	C390.898346,210.694214 395.477173,211.254578 399.027802,207.074158 
	C402.590485,202.879532 401.361633,198.753174 395.109833,193.254028 
	C367.710419,169.153152 344.533569,141.752029 329.449890,108.177322 
	C324.454498,97.058144 320.788513,85.473770 321.129211,73.058891 
	C321.481628,60.218052 327.727234,51.833057 339.075073,50.189465 
	C344.898590,49.345993 351.253876,49.211216 356.884796,50.650253 
	C366.955017,53.223801 376.688446,57.148739 386.503326,60.673832 
	C391.303558,62.397884 395.551331,61.162769 397.546417,57.046257 
	C399.352875,53.318909 398.140869,48.791565 394.115753,46.796570 
	C376.467926,38.049664 358.105225,31.533100 338.044586,34.152706 
	C323.002899,36.116920 312.376556,44.486862 307.545959,59.323128 
	C304.471710,68.765068 304.802246,78.402061 306.590576,87.956245 
	C310.318054,107.870331 319.110687,125.684425 330.277374,143.237686 
M374.272003,231.982651 
	C364.715454,235.524185 354.987549,238.275940 344.664551,237.946564 
	C332.857727,237.569855 324.983643,232.308746 322.469696,222.249252 
	C321.325317,217.670044 321.238800,212.661865 321.569763,207.910751 
	C322.412903,195.805603 326.795654,184.674393 331.906830,173.795074 
	C334.546326,168.176865 333.206146,163.560669 328.564148,161.452774 
	C324.211487,159.476242 320.258942,161.423508 317.548309,167.054108 
	C311.087067,180.475632 306.560822,194.419464 305.297394,209.400711 
	C303.738556,227.884811 312.537811,244.267319 328.081390,250.478790 
	C338.635681,254.696457 349.548859,254.440140 360.500549,252.339539 
	C377.359558,249.105927 392.745941,242.134415 407.417297,233.481018 
	C434.937897,217.248886 458.400177,196.233917 479.245361,172.165634 
	C481.874542,169.129913 482.994476,165.904358 480.692017,162.167801 
	C477.446350,156.900528 471.422546,157.065826 466.564026,162.575211 
	C440.745178,191.852722 411.532532,216.638855 374.272003,231.982651 
M397.265594,151.052612 
	C404.838196,151.462326 407.791534,156.177017 408.626160,163.038315 
	C408.945862,165.666824 409.645844,168.251373 410.215149,170.846619 
	C410.796265,173.495605 411.324097,176.231400 414.907379,176.306458 
	C418.497375,176.381653 419.147888,173.738022 419.751282,171.048492 
	C420.733154,166.671844 421.242584,162.103134 422.897156,157.996506 
	C423.853180,155.623672 426.349487,153.356110 428.718201,152.199356 
	C431.623871,150.780380 435.274017,150.942276 438.299408,149.689362 
	C439.919159,149.018585 441.696899,146.913116 441.907043,145.264420 
	C442.058594,144.075546 439.993835,141.989731 438.472595,141.329865 
	C435.299011,139.953262 431.567719,139.744476 428.565247,138.127808 
	C426.079041,136.789124 423.538055,134.467072 422.404816,131.956299 
	C420.726044,128.236862 420.583008,123.849365 419.148499,119.982872 
	C418.536560,118.333481 416.316284,116.247505 414.825806,116.246666 
	C413.321289,116.245819 411.102905,118.301537 410.453430,119.950897 
	C408.942078,123.789062 408.068085,127.898277 407.160553,131.948013 
	C406.383362,135.416077 404.491455,137.460373 400.994049,138.281631 
	C397.603882,139.077713 394.167816,139.911255 390.990601,141.281723 
	C389.424957,141.957062 387.232147,144.056274 387.403412,145.199539 
	C387.654297,146.874329 389.535706,148.647598 391.166565,149.670639 
	C392.620636,150.582794 394.677887,150.533508 397.265594,151.052612 
M469.832672,437.494690 
	C469.266174,427.215027 469.050598,416.899170 467.996460,406.669739 
	C467.400696,400.888214 463.328705,397.147308 457.587097,395.918823 
	C447.052429,393.664856 436.889099,395.150818 426.829773,399.258240 
	C427.556396,401.458954 428.153778,403.268127 428.675323,404.847717 
	C434.945923,403.669678 440.763092,402.346466 446.650574,401.530060 
	C453.748444,400.545715 459.441254,402.690094 460.851013,407.187683 
	C462.200043,411.491425 462.583435,416.097778 463.290161,420.011475 
	C456.717590,420.011475 451.077576,419.770264 445.466339,420.069366 
	C437.533752,420.492218 430.030701,422.475189 426.351074,430.437500 
	C423.236908,437.176239 423.444794,444.259491 428.141541,450.264862 
	C433.165833,456.689026 440.534668,458.125641 448.024872,456.488983 
	C453.080597,455.384247 457.770111,452.603394 462.786530,450.503998 
	C463.281403,452.340637 463.862671,454.497711 464.524780,456.954895 
	C466.631287,456.611481 468.498871,456.307007 469.832550,456.089569 
	C469.832550,449.792633 469.832550,444.142151 469.832672,437.494690 
M554.456970,399.013763 
	C554.820801,401.011353 555.184631,403.008942 555.517883,404.838989 
	C562.056946,403.642578 568.029297,402.288879 574.075623,401.511108 
	C581.270508,400.585602 586.605286,402.816406 588.038879,407.504974 
	C589.317261,411.685944 589.708374,416.138214 590.409241,420.018036 
	C583.801880,420.018036 578.032043,419.880066 572.271057,420.047180 
	C560.734253,420.381836 552.569580,426.797577 551.843079,435.893250 
	C550.546570,452.127380 564.129639,461.628662 579.649475,455.233582 
	C583.120789,453.803162 586.372681,451.840057 589.814148,450.076782 
	C590.425049,452.437286 590.990417,454.622070 591.602051,456.985687 
	C593.749023,456.608185 595.526489,456.295654 596.929504,456.048950 
	C596.929504,450.444763 597.037659,445.145905 596.906311,439.852997 
	C596.658813,429.880127 596.729065,419.868805 595.816284,409.951752 
	C594.911987,400.126221 589.439880,394.968231 579.653931,395.264282 
	C571.471069,395.511871 563.340820,397.497375 554.456970,399.013763 
M312.920624,455.874481 
	C314.388214,456.170441 315.847168,456.521088 317.324707,456.753784 
	C329.797302,458.718140 339.661163,453.450317 343.505554,442.091034 
	C347.121613,431.406464 347.121552,420.414246 343.502960,409.723633 
	C339.701904,398.494019 332.039764,394.286530 318.295715,395.049408 
	C308.493195,395.593506 300.909637,401.684906 299.128906,412.231201 
	C297.819794,419.984283 297.523193,428.113983 298.224274,435.946136 
	C299.011597,444.741333 303.168732,452.132690 312.920624,455.874481 
M391.332367,448.049377 
	C389.917267,448.516327 388.521301,449.054871 387.084015,449.438751 
	C376.485809,452.269348 370.640289,448.287170 369.608704,437.423920 
	C369.341949,434.614624 369.463562,431.765533 369.460083,428.934662 
	C369.446564,417.980377 369.454590,407.026062 369.454590,395.799591 
	C367.082214,395.799591 365.185028,395.799591 363.117401,395.799591 
	C363.117401,410.998322 362.569946,425.982452 363.293457,440.904938 
	C363.855652,452.500671 373.265381,458.924652 384.693970,456.443665 
	C389.956268,455.301300 395.017456,453.232544 400.338898,451.529724 
	C400.711853,452.950623 401.103333,454.442108 401.450531,455.764893 
	C403.470032,455.764893 405.116730,455.764893 406.982605,455.764893 
	C406.982605,435.692352 406.982605,415.781891 406.982605,395.837097 
	C404.822052,395.837097 402.911530,395.837097 400.643311,395.837097 
	C400.643311,409.288513 400.641571,422.422180 400.643921,435.555878 
	C400.645477,444.350067 400.648102,444.350159 392.571136,447.652618 
	C392.416931,447.715668 392.260132,447.772308 391.332367,448.049377 
M507.758667,402.900970 
	C508.887054,402.625092 510.003174,402.276093 511.145691,402.084656 
	C522.576538,400.169342 527.755554,404.532196 527.909485,416.189972 
	C527.935852,418.188232 527.915955,420.187134 527.916016,422.185730 
	C527.916321,433.302612 527.916138,444.419464 527.916138,455.548035 
	C530.445862,455.548035 532.463745,455.548035 534.269165,455.548035 
	C534.269165,440.196136 534.784302,425.212524 534.087769,410.285492 
	C533.624451,400.357056 526.489075,394.401031 516.692932,395.158325 
	C510.198547,395.660400 503.833099,397.830353 497.144440,399.312500 
	C496.916290,398.568268 496.464447,397.094391 496.068237,395.801941 
	C493.944916,395.801941 492.175934,395.801941 490.414917,395.801941 
	C490.414917,415.996033 490.414917,435.878021 490.414917,455.645691 
	C492.705872,455.645691 494.632385,455.645691 496.934845,455.645691 
	C496.934845,442.728058 496.934753,430.100891 496.934875,417.473724 
	C496.934967,406.660217 496.935089,406.660217 507.758667,402.900970 
M261.191528,401.500916 
	C261.191528,394.092194 261.191528,386.683441 261.191528,378.895416 
	C268.871979,378.895416 275.965790,378.895416 283.077332,378.895416 
	C283.077332,376.612244 283.077332,374.727783 283.077332,372.920166 
	C266.024933,372.920166 249.334808,372.920166 232.609070,372.920166 
	C232.609070,375.082947 232.609070,376.840942 232.609070,379.140564 
	C239.916138,379.140564 246.978928,379.140564 254.340179,379.140564 
	C254.340179,404.749268 254.340179,429.813049 254.340179,455.112244 
	C256.729340,455.112244 258.789124,455.112244 261.191864,455.112244 
	C261.191864,437.390045 261.191864,419.945496 261.191528,401.500916 
z"/>
<path fill="#C7E9F2" opacity="1.000000" stroke="none" 
	d="
M484.941895,49.304478 
	C464.882294,50.058075 447.827301,58.159389 431.376587,67.796219 
	C406.275513,82.500458 384.853241,101.611549 365.747559,123.414993 
	C360.391754,129.527100 356.077789,130.819870 351.923157,127.332039 
	C347.752899,123.831093 348.251099,119.228607 353.658783,113.096138 
	C379.232086,84.095093 408.195770,59.432686 443.828827,43.506905 
	C457.740936,37.289043 472.177460,33.131134 487.714264,33.743629 
	C510.036530,34.623627 524.999939,49.287621 525.752502,71.747658 
	C526.359863,89.873421 520.376038,106.403976 512.546875,122.355606 
	C510.516541,126.492279 505.727722,127.699814 501.829224,125.703529 
	C498.051086,123.768875 496.921997,119.560738 498.612244,114.907310 
	C502.003326,105.571411 505.429352,96.239540 508.436584,86.777496 
	C509.525665,83.350807 509.795135,79.562759 509.861633,75.929047 
	C510.179291,58.567837 502.738831,50.555733 484.941895,49.304478 
z"/>
<path fill="#C7E9F1" opacity="1.000000" stroke="none" 
	d="
M439.900146,242.070984 
	C437.452698,240.169128 434.164520,238.694336 433.588867,236.505997 
	C432.910858,233.928650 433.657898,229.609512 435.483673,228.106110 
	C437.507080,226.440002 441.741791,226.111938 444.499420,226.931396 
	C453.691406,229.662918 462.461121,234.034973 471.765228,236.098114 
	C478.871521,237.673920 486.705414,237.741135 493.922699,236.610184 
	C503.682739,235.080750 509.565308,226.277771 509.920624,215.251740 
	C510.417755,199.824539 505.129517,185.863968 498.447144,172.391296 
	C483.359283,141.971741 461.664307,116.748985 436.383301,94.410240 
	C435.260925,93.418480 434.071899,92.495605 433.008087,91.445244 
	C429.388580,87.871429 428.984741,83.858604 431.832855,80.367241 
	C434.780731,76.753555 439.478180,76.143280 443.306610,79.537704 
	C451.021790,86.378326 458.785065,93.219025 465.936951,100.630508 
	C487.444214,122.918488 505.907104,147.388763 517.640686,176.355759 
	C523.108704,189.854721 526.938171,203.774933 525.435974,218.579849 
	C522.821655,244.345032 503.079437,255.412598 480.262177,253.643402 
	C466.160645,252.549973 452.985748,248.125717 439.900146,242.070984 
z"/>
<path fill="#C7E9F2" opacity="1.000000" stroke="none" 
	d="
M330.118439,142.912445 
	C319.110687,125.684425 310.318054,107.870331 306.590576,87.956245 
	C304.802246,78.402061 304.471710,68.765068 307.545959,59.323128 
	C312.376556,44.486862 323.002899,36.116920 338.044586,34.152706 
	C358.105225,31.533100 376.467926,38.049664 394.115753,46.796570 
	C398.140869,48.791565 399.352875,53.318909 397.546417,57.046257 
	C395.551331,61.162769 391.303558,62.397884 386.503326,60.673832 
	C376.688446,57.148739 366.955017,53.223801 356.884796,50.650253 
	C351.253876,49.211216 344.898590,49.345993 339.075073,50.189465 
	C327.727234,51.833057 321.481628,60.218052 321.129211,73.058891 
	C320.788513,85.473770 324.454498,97.058144 329.449890,108.177322 
	C344.533569,141.752029 367.710419,169.153152 395.109833,193.254028 
	C401.361633,198.753174 402.590485,202.879532 399.027802,207.074158 
	C395.477173,211.254578 390.898346,210.694214 384.780396,205.348679 
	C363.854675,187.064819 345.414398,166.600784 330.118439,142.912445 
z"/>
<path fill="#C7E9F1" opacity="1.000000" stroke="none" 
	d="
M374.647827,231.878357 
	C411.532532,216.638855 440.745178,191.852722 466.564026,162.575211 
	C471.422546,157.065826 477.446350,156.900528 480.692017,162.167801 
	C482.994476,165.904358 481.874542,169.129913 479.245361,172.165634 
	C458.400177,196.233917 434.937897,217.248886 407.417297,233.481018 
	C392.745941,242.134415 377.359558,249.105927 360.500549,252.339539 
	C349.548859,254.440140 338.635681,254.696457 328.081390,250.478790 
	C312.537811,244.267319 303.738556,227.884811 305.297394,209.400711 
	C306.560822,194.419464 311.087067,180.475632 317.548309,167.054108 
	C320.258942,161.423508 324.211487,159.476242 328.564148,161.452774 
	C333.206146,163.560669 334.546326,168.176865 331.906830,173.795074 
	C326.795654,184.674393 322.412903,195.805603 321.569763,207.910751 
	C321.238800,212.661865 321.325317,217.670044 322.469696,222.249252 
	C324.983643,232.308746 332.857727,237.569855 344.664551,237.946564 
	C354.987549,238.275940 364.715454,235.524185 374.647827,231.878357 
z"/>
<path fill="#C7E8F1" opacity="1.000000" stroke="none" 
	d="
M396.867249,150.980560 
	C394.677887,150.533508 392.620636,150.582794 391.166565,149.670639 
	C389.535706,148.647598 387.654297,146.874329 387.403412,145.199539 
	C387.232147,144.056274 389.424957,141.957062 390.990601,141.281723 
	C394.167816,139.911255 397.603882,139.077713 400.994049,138.281631 
	C404.491455,137.460373 406.383362,135.416077 407.160553,131.948013 
	C408.068085,127.898277 408.942078,123.789062 410.453430,119.950897 
	C411.102905,118.301537 413.321289,116.245819 414.825806,116.246666 
	C416.316284,116.247505 418.536560,118.333481 419.148499,119.982872 
	C420.583008,123.849365 420.726044,128.236862 422.404816,131.956299 
	C423.538055,134.467072 426.079041,136.789124 428.565247,138.127808 
	C431.567719,139.744476 435.299011,139.953262 438.472595,141.329865 
	C439.993835,141.989731 442.058594,144.075546 441.907043,145.264420 
	C441.696899,146.913116 439.919159,149.018585 438.299408,149.689362 
	C435.274017,150.942276 431.623871,150.780380 428.718201,152.199356 
	C426.349487,153.356110 423.853180,155.623672 422.897156,157.996506 
	C421.242584,162.103134 420.733154,166.671844 419.751282,171.048492 
	C419.147888,173.738022 418.497375,176.381653 414.907379,176.306458 
	C411.324097,176.231400 410.796265,173.495605 410.215149,170.846619 
	C409.645844,168.251373 408.945862,165.666824 408.626160,163.038315 
	C407.791534,156.177017 404.838196,151.462326 396.867249,150.980560 
z"/>
<path fill="#C4E4EC" opacity="1.000000" stroke="none" 
	d="
M469.832611,437.993164 
	C469.832550,444.142151 469.832550,449.792633 469.832550,456.089569 
	C468.498871,456.307007 466.631287,456.611481 464.524780,456.954895 
	C463.862671,454.497711 463.281403,452.340637 462.786530,450.503998 
	C457.770111,452.603394 453.080597,455.384247 448.024872,456.488983 
	C440.534668,458.125641 433.165833,456.689026 428.141541,450.264862 
	C423.444794,444.259491 423.236908,437.176239 426.351074,430.437500 
	C430.030701,422.475189 437.533752,420.492218 445.466339,420.069366 
	C451.077576,419.770264 456.717590,420.011475 463.290161,420.011475 
	C462.583435,416.097778 462.200043,411.491425 460.851013,407.187683 
	C459.441254,402.690094 453.748444,400.545715 446.650574,401.530060 
	C440.763092,402.346466 434.945923,403.669678 428.675323,404.847717 
	C428.153778,403.268127 427.556396,401.458954 426.829773,399.258240 
	C436.889099,395.150818 447.052429,393.664856 457.587097,395.918823 
	C463.328705,397.147308 467.400696,400.888214 467.996460,406.669739 
	C469.050598,416.899170 469.266174,427.215027 469.832611,437.993164 
M461.182068,443.346313 
	C462.013702,438.008240 462.845337,432.670166 463.780701,426.666290 
	C455.557922,426.666290 448.583527,426.120300 441.735535,426.816864 
	C434.611847,427.541412 431.325287,432.473297 431.787354,439.772614 
	C432.204010,446.354279 436.027893,449.878845 443.238556,450.322144 
	C449.979126,450.736511 455.325378,447.399933 461.182068,443.346313 
z"/>
<path fill="#C4E5EC" opacity="1.000000" stroke="none" 
	d="
M554.822144,398.863525 
	C563.340820,397.497375 571.471069,395.511871 579.653931,395.264282 
	C589.439880,394.968231 594.911987,400.126221 595.816284,409.951752 
	C596.729065,419.868805 596.658813,429.880127 596.906311,439.852997 
	C597.037659,445.145905 596.929504,450.444763 596.929504,456.048950 
	C595.526489,456.295654 593.749023,456.608185 591.602051,456.985687 
	C590.990417,454.622070 590.425049,452.437286 589.814148,450.076782 
	C586.372681,451.840057 583.120789,453.803162 579.649475,455.233582 
	C564.129639,461.628662 550.546570,452.127380 551.843079,435.893250 
	C552.569580,426.797577 560.734253,420.381836 572.271057,420.047180 
	C578.032043,419.880066 583.801880,420.018036 590.409241,420.018036 
	C589.708374,416.138214 589.317261,411.685944 588.038879,407.504974 
	C586.605286,402.816406 581.270508,400.585602 574.075623,401.511108 
	C568.029297,402.288879 562.056946,403.642578 555.517883,404.838989 
	C555.184631,403.008942 554.820801,401.011353 554.822144,398.863525 
M561.035034,446.282135 
	C567.198059,451.676453 574.489197,451.755859 583.490479,446.526703 
	C590.751343,442.308594 591.763672,438.987793 589.285767,426.201874 
	C583.648376,426.201874 577.848145,426.065765 572.056641,426.231110 
	C561.042969,426.545532 555.577026,434.962280 561.035034,446.282135 
z"/>
<path fill="#C3E3EB" opacity="1.000000" stroke="none" 
	d="
M312.550354,455.720612 
	C303.168732,452.132690 299.011597,444.741333 298.224274,435.946136 
	C297.523193,428.113983 297.819794,419.984283 299.128906,412.231201 
	C300.909637,401.684906 308.493195,395.593506 318.295715,395.049408 
	C332.039764,394.286530 339.701904,398.494019 343.502960,409.723633 
	C347.121552,420.414246 347.121613,431.406464 343.505554,442.091034 
	C339.661163,453.450317 329.797302,458.718140 317.324707,456.753784 
	C315.847168,456.521088 314.388214,456.170441 312.550354,455.720612 
M327.408264,449.415131 
	C330.278381,446.619049 334.245331,444.327393 335.807800,440.929932 
	C340.068665,431.665100 339.557404,421.755524 336.618408,412.169403 
	C334.352570,404.778839 328.479218,401.079315 321.088470,401.385834 
	C313.353058,401.706665 307.570251,405.849884 306.255554,413.641510 
	C305.109436,420.434265 304.495911,427.603394 305.361847,434.387360 
	C306.989838,447.140717 313.955139,451.676788 327.408264,449.415131 
z"/>
<path fill="#C8EAF2" opacity="1.000000" stroke="none" 
	d="
M391.718445,447.940643 
	C392.260132,447.772308 392.416931,447.715668 392.571136,447.652618 
	C400.648102,444.350159 400.645477,444.350067 400.643921,435.555878 
	C400.641571,422.422180 400.643311,409.288513 400.643311,395.837097 
	C402.911530,395.837097 404.822052,395.837097 406.982605,395.837097 
	C406.982605,415.781891 406.982605,435.692352 406.982605,455.764893 
	C405.116730,455.764893 403.470032,455.764893 401.450531,455.764893 
	C401.103333,454.442108 400.711853,452.950623 400.338898,451.529724 
	C395.017456,453.232544 389.956268,455.301300 384.693970,456.443665 
	C373.265381,458.924652 363.855652,452.500671 363.293457,440.904938 
	C362.569946,425.982452 363.117401,410.998322 363.117401,395.799591 
	C365.185028,395.799591 367.082214,395.799591 369.454590,395.799591 
	C369.454590,407.026062 369.446564,417.980377 369.460083,428.934662 
	C369.463562,431.765533 369.341949,434.614624 369.608704,437.423920 
	C370.640289,448.287170 376.485809,452.269348 387.084015,449.438751 
	C388.521301,449.054871 389.917267,448.516327 391.718445,447.940643 
z"/>
<path fill="#C4E3EB" opacity="1.000000" stroke="none" 
	d="
M507.353394,402.997284 
	C496.935089,406.660217 496.934967,406.660217 496.934875,417.473724 
	C496.934753,430.100891 496.934845,442.728058 496.934845,455.645691 
	C494.632385,455.645691 492.705872,455.645691 490.414917,455.645691 
	C490.414917,435.878021 490.414917,415.996033 490.414917,395.801941 
	C492.175934,395.801941 493.944916,395.801941 496.068237,395.801941 
	C496.464447,397.094391 496.916290,398.568268 497.144440,399.312500 
	C503.833099,397.830353 510.198547,395.660400 516.692932,395.158325 
	C526.489075,394.401031 533.624451,400.357056 534.087769,410.285492 
	C534.784302,425.212524 534.269165,440.196136 534.269165,455.548035 
	C532.463745,455.548035 530.445862,455.548035 527.916138,455.548035 
	C527.916138,444.419464 527.916321,433.302612 527.916016,422.185730 
	C527.915955,420.187134 527.935852,418.188232 527.909485,416.189972 
	C527.755554,404.532196 522.576538,400.169342 511.145691,402.084656 
	C510.003174,402.276093 508.887054,402.625092 507.353394,402.997284 
z"/>
<path fill="#C6E6EF" opacity="1.000000" stroke="none" 
	d="
M261.191711,402.000946 
	C261.191864,419.945496 261.191864,437.390045 261.191864,455.112244 
	C258.789124,455.112244 256.729340,455.112244 254.340179,455.112244 
	C254.340179,429.813049 254.340179,404.749268 254.340179,379.140564 
	C246.978928,379.140564 239.916138,379.140564 232.609070,379.140564 
	C232.609070,376.840942 232.609070,375.082947 232.609070,372.920166 
	C249.334808,372.920166 266.024933,372.920166 283.077332,372.920166 
	C283.077332,374.727783 283.077332,376.612244 283.077332,378.895416 
	C275.965790,378.895416 268.871979,378.895416 261.191528,378.895416 
	C261.191528,386.683441 261.191528,394.092194 261.191711,402.000946 
z"/>
<path fill="#212121" opacity="1.000000" stroke="none" 
	d="
M460.889160,443.604553 
	C455.325378,447.399933 449.979126,450.736511 443.238556,450.322144 
	C436.027893,449.878845 432.204010,446.354279 431.787354,439.772614 
	C431.325287,432.473297 434.611847,427.541412 441.735535,426.816864 
	C448.583527,426.120300 455.557922,426.666290 463.780701,426.666290 
	C462.845337,432.670166 462.013702,438.008240 460.889160,443.604553 
z"/>
<path fill="#202121" opacity="1.000000" stroke="none" 
	d="
M560.832886,445.938660 
	C555.577026,434.962280 561.042969,426.545532 572.056641,426.231110 
	C577.848145,426.065765 583.648376,426.201874 589.285767,426.201874 
	C591.763672,438.987793 590.751343,442.308594 583.490479,446.526703 
	C574.489197,451.755859 567.198059,451.676453 560.832886,445.938660 
z"/>
<path fill="#1F1F1F" opacity="1.000000" stroke="none" 
	d="
M327.023865,449.577881 
	C313.955139,451.676788 306.989838,447.140717 305.361847,434.387360 
	C304.495911,427.603394 305.109436,420.434265 306.255554,413.641510 
	C307.570251,405.849884 313.353058,401.706665 321.088470,401.385834 
	C328.479218,401.079315 334.352570,404.778839 336.618408,412.169403 
	C339.557404,421.755524 340.068665,431.665100 335.807800,440.929932 
	C334.245331,444.327393 330.278381,446.619049 327.023865,449.577881 
z"/>
</svg>