<svg xmlns="http://www.w3.org/2000/svg" xml:space="preserve" width="2000" height="1500" data-id="lg_bQucSUA7MEyRJctefF" data-version="1" viewBox="0 0 2000 1500"><path fill="#fff" stroke="transparent" d="M0 0h2000v1500H0z"/><g data-padding="20"><g transform="translate(-1651.786 -1255.006)scale(2.5829)"><rect width="390.628" height="82.49" x="431.106" y="334.824" fill="none" rx="0" ry="0" transform="translate(485.18 400.19)"/><path fill="#303030" d="M917.82 760.24v-18.47h53.9v18.47h-15.87v38.46h-22.17v-38.46Zm86.9 39.85q-6.02 0-11.67-2.12t-10.16-6.08-7.15-9.5T973.1 770q0-6.7 2.48-12.19t6.86-9.44q4.39-3.96 10.11-6.08t12.17-2.12q6.77 0 12.64 2.05 5.86 2.05 10.26 5.95t6.88 9.48 2.48 12.64q0 6.84-2.6 12.35-2.61 5.51-7.13 9.39-4.53 3.89-10.32 5.97-5.79 2.09-12.21 2.09m-2.5-18.54q1.89 0 4.03-1.83 2.14-1.84 4.03-4.69t3.08-6.02q1.2-3.18 1.2-5.85 0-2.5-1.32-4.14-1.32-1.63-4.46-1.63-1.92 0-4.11 1.8-2.2 1.8-4.1 4.63-1.91 2.83-3.12 5.99-1.21 3.15-1.21 5.83 0 2.56 1.37 4.24 1.37 1.67 4.61 1.67m38.03-5.57v-34.22h22.49v33.58q0 3.03 1.47 5.08 1.46 2.05 4.74 2.05t4.74-2.12 1.46-5.15v-33.44h19.71v34.22q0 12.26-6.75 18.18-6.76 5.92-19.52 5.92-13.9 0-21.12-5.92t-7.22-18.18m81.55 22.72h-25.16l28.3-54.04q1.03-1.96 3.21-3.05 2.17-1.08 4.52-1.08 2.11 0 4.12.96 2.02.96 3.12 2.96l30.37 54.25h-28.91l-2.24-5.63h-15.4Zm9.73-32.33-6.06 15.4h11.52Zm40.96 32.33v-56.93h5.77l31.08 22.17v-22.17h20.07v56.93h-7.66l-29.27-19.57v19.57Zm84.43 0h-25.16l28.3-54.04q1.03-1.96 3.21-3.05 2.17-1.08 4.53-1.08 2.1 0 4.11.96 2.02.96 3.12 2.96l30.37 54.25h-28.91l-2.24-5.63h-15.4Zm9.73-32.33-6.05 15.4h11.51Z"/><rect width="100" height="50.38" x="417.477" y="255.459" fill="#303030" rx="7" ry="7" transform="translate(203.77 400.74)scale(1.34)"/><path fill="#fff" d="m810.506 736.837 45.914 39.7-45.914 39.701h-30.36l34.958-30.18H746.42v-19.249h68.43l-34.76-30.029Zm63.084 29.432a10.49 10.49 0 1 0 0 20.98 10.49 10.49 0 1 0 0-20.98"/></g><path fill="transparent" stroke="transparent" stroke-width="2.679" d="M250 640.179h1500V859.82H250z"/></g></svg>